<svg width="20" height="21" viewBox="0 0 20 21" fill="none" xmlns="http://www.w3.org/2000/svg">
<path fill-rule="evenodd" clip-rule="evenodd" d="M9.96942 0.771484C4.46483 0.771484 0 5.23632 0 10.7409C0 15.1446 2.87462 18.8755 6.78899 20.221C7.27829 20.2822 7.46177 19.9764 7.46177 19.7317C7.46177 19.4871 7.46177 18.8755 7.46177 18.0192C4.70948 18.6308 4.09786 16.6736 4.09786 16.6736C3.66972 15.5115 2.99694 15.2057 2.99694 15.2057C2.07951 14.5941 3.0581 14.5941 3.0581 14.5941C4.0367 14.6553 4.58716 15.6339 4.58716 15.6339C5.50459 17.1629 6.91131 16.7348 7.46177 16.4901C7.52294 15.8174 7.82875 15.3892 8.07339 15.1446C5.87156 14.8999 3.5474 14.0437 3.5474 10.1904C3.5474 9.08953 3.91437 8.23326 4.58716 7.49931C4.52599 7.31583 4.15902 6.27607 4.70948 4.93051C4.70948 4.93051 5.56575 4.68586 7.46177 5.97026C8.25688 5.72561 9.11315 5.66445 9.96942 5.66445C10.8257 5.66445 11.682 5.78678 12.4771 5.97026C14.3731 4.68586 15.2294 4.93051 15.2294 4.93051C15.7798 6.27607 15.4128 7.31583 15.3517 7.56048C15.9633 8.23326 16.3914 9.15069 16.3914 10.2516C16.3914 14.1048 14.0673 14.8999 11.8654 15.1446C12.2324 15.4504 12.5382 16.062 12.5382 16.9794C12.5382 18.325 12.5382 19.3648 12.5382 19.7317C12.5382 19.9764 12.7217 20.2822 13.211 20.221C17.1865 18.8755 20 15.1446 20 10.7409C19.9388 5.23632 15.474 0.771484 9.96942 0.771484Z" fill="#122D18"/>
</svg>
